<svg width="75" height="75" fill="none" xmlns="http://www.w3.org/2000/svg"><g clip-path="url(#a)"><path d="M37.56 0A37.52 37.52 0 0 0 0 37.32 37.5 37.5 0 1 0 37.56 0ZM24.23 66.04C7.41 58.2 2.3 38.94 8.6 25.24h10.2l6.88 9.83-13.78 19.7h51.65c-6.03 10.6-22.9 18.93-39.32 11.27Zm-.22-17.32 5.6-8.01 3 4.24h22.01c5.87-.01 10.44-3.82 11.42-9.5 1.1-6.45-3.85-12.7-10.45-12.88-6.66-.17-13.33-.04-20-.05h-1.1l-4.9 6.94-7.23-10.32H12.2C18.37 9.24 34.69 1.5 50.63 8.89c16.93 7.83 21.73 26.7 16.18 39.83H24Zm9.53-13.62 4.61-6.58c5.7 0 11.31-.07 16.93.03a5.11 5.11 0 0 1 5.1 5.24 5.05 5.05 0 0 1-5.09 5.07c-6.2.06-12.4 0-18.59 0-.1 0-.2-.06-.42-.13l-2.54-3.63Z" fill="url(#b)"/></g><defs><linearGradient id="b" x1="37.5" y1="0" x2="37.5" y2="75" gradientUnits="userSpaceOnUse"><stop stop-color="#00759F"/><stop offset="1" stop-color="#00465F"/></linearGradient><clipPath id="a"><path fill="#fff" d="M0 0h75v75H0z"/></clipPath></defs></svg>