<svg width="151" height="33" viewBox="0 0 151 33" fill="none" xmlns="http://www.w3.org/2000/svg">
<g clip-path="url(#clip0)">
<path d="M63.0481 6.90337V26.0977H59.7158V11.0355H59.6713L53.7175 26.0977H51.496L45.4089 11.0355H45.3645V26.0977H42.2987V6.90337H47.0973L52.6068 21.1214H52.6956L58.5161 6.90337H63.0481ZM65.8029 8.3696C65.8029 7.83643 65.9806 7.39211 66.3805 7.03666C66.7803 6.68121 67.2247 6.50349 67.7578 6.50349C68.3354 6.50349 68.8242 6.68121 69.1796 7.03666C69.5351 7.39211 69.7572 7.83643 69.7572 8.3696C69.7572 8.90278 69.5795 9.34709 69.1796 9.70254C68.7797 10.058 68.3354 10.2357 67.7578 10.2357C67.1802 10.2357 66.7359 10.058 66.3805 9.70254C66.025 9.30266 65.8029 8.85834 65.8029 8.3696ZM69.4018 12.324V26.0977H66.1583V12.324H69.4018ZM79.2211 23.7428C79.7098 23.7428 80.243 23.654 80.8206 23.3874C81.3982 23.1652 81.9314 22.8542 82.4201 22.4987V25.5201C81.887 25.8311 81.3094 26.0532 80.6429 26.1865C79.9764 26.3198 79.2655 26.4087 78.4658 26.4087C76.4219 26.4087 74.778 25.7867 73.5339 24.4982C72.2454 23.2096 71.6233 21.5657 71.6233 19.6107C71.6233 17.3891 72.2898 15.5675 73.5783 14.1457C74.8668 12.7239 76.6885 12.013 79.0878 12.013C79.7098 12.013 80.3319 12.1018 80.9095 12.2351C81.5315 12.3684 82.0203 12.5906 82.3757 12.7683V15.8785C81.887 15.523 81.3538 15.212 80.8651 15.0343C80.3319 14.8566 79.7987 14.7233 79.2655 14.7233C77.977 14.7233 76.9551 15.1232 76.1553 15.9673C75.3556 16.8115 75.0001 17.9223 75.0001 19.3441C75.0001 20.7215 75.4 21.8323 76.1553 22.5876C76.9107 23.3429 77.9326 23.7428 79.2211 23.7428ZM91.6174 12.1018C91.884 12.1018 92.1062 12.1018 92.3283 12.1463C92.5505 12.1907 92.7282 12.2351 92.8615 12.2796V15.5675C92.6838 15.4342 92.4616 15.3009 92.1062 15.212C91.7507 15.1232 91.3953 15.0343 90.9065 15.0343C90.1068 15.0343 89.4403 15.3897 88.9071 16.0562C88.3739 16.7227 88.0629 17.7446 88.0629 19.1664V26.0977H84.8194V12.324H88.0629V14.5011H88.1073C88.4184 13.7458 88.8627 13.1682 89.4403 12.7239C90.0623 12.324 90.7732 12.1018 91.6174 12.1018ZM93.0392 19.433C93.0392 17.167 93.7057 15.3453 94.9498 14.0124C96.2383 12.6794 98.0155 12.013 100.282 12.013C102.414 12.013 104.103 12.635 105.302 13.9235C106.502 15.212 107.124 16.9448 107.124 19.122C107.124 21.3435 106.457 23.1208 105.213 24.4537C103.925 25.7867 102.192 26.4531 99.9705 26.4531C97.8378 26.4531 96.1494 25.8311 94.9053 24.587C93.6613 23.2985 93.0392 21.5657 93.0392 19.433ZM96.416 19.2997C96.416 20.7215 96.727 21.8323 97.3935 22.5876C98.06 23.3429 98.993 23.7428 100.193 23.7428C101.348 23.7428 102.281 23.3874 102.903 22.5876C103.525 21.8323 103.836 20.7215 103.836 19.2108C103.836 17.7446 103.525 16.6338 102.903 15.8341C102.281 15.0787 101.348 14.6788 100.237 14.6788C99.0374 14.6788 98.1488 15.0787 97.4823 15.8785C96.727 16.7227 96.416 17.8335 96.416 19.2997ZM111.967 15.9673C111.967 16.4117 112.1 16.8115 112.411 17.0781C112.722 17.3447 113.344 17.6557 114.366 18.0556C115.655 18.5888 116.588 19.1664 117.077 19.7884C117.61 20.4549 117.876 21.2102 117.876 22.1433C117.876 23.4318 117.388 24.4537 116.366 25.2535C115.388 26.0532 114.011 26.4087 112.322 26.4087C111.745 26.4087 111.123 26.3198 110.412 26.1865C109.701 26.0532 109.123 25.8755 108.635 25.6534V22.4543C109.212 22.8542 109.879 23.2096 110.545 23.4318C111.212 23.654 111.834 23.7873 112.411 23.7873C113.122 23.7873 113.7 23.6984 114.011 23.4762C114.366 23.2541 114.544 22.9431 114.544 22.4543C114.544 22.01 114.366 21.6546 114.011 21.2991C113.655 20.9881 112.944 20.6326 111.967 20.2327C110.767 19.744 109.923 19.1664 109.434 18.5444C108.946 17.9223 108.679 17.1226 108.679 16.1451C108.679 14.901 109.168 13.8791 110.145 13.0793C111.123 12.2796 112.411 11.8797 113.966 11.8797C114.455 11.8797 114.988 11.9241 115.566 12.0574C116.143 12.1907 116.677 12.324 117.077 12.4573V15.6119C116.632 15.3453 116.143 15.0787 115.566 14.8566C114.988 14.6344 114.411 14.5455 113.877 14.5455C113.255 14.5455 112.767 14.6788 112.456 14.901C112.145 15.212 111.967 15.523 111.967 15.9673ZM119.254 19.433C119.254 17.167 119.92 15.3453 121.164 14.0124C122.453 12.6794 124.23 12.013 126.496 12.013C128.629 12.013 130.317 12.635 131.517 13.9235C132.716 15.212 133.338 16.9448 133.338 19.122C133.338 21.3435 132.672 23.1208 131.428 24.4537C130.139 25.7867 128.407 26.4531 126.185 26.4531C124.052 26.4531 122.364 25.8311 121.12 24.587C119.92 23.2985 119.254 21.5657 119.254 19.433ZM122.63 19.2997C122.63 20.7215 122.941 21.8323 123.608 22.5876C124.274 23.3429 125.207 23.7428 126.407 23.7428C127.562 23.7428 128.495 23.3874 129.117 22.5876C129.739 21.8323 130.05 20.7215 130.05 19.2108C130.05 17.7446 129.739 16.6338 129.117 15.8341C128.495 15.0787 127.562 14.6788 126.452 14.6788C125.252 14.6788 124.363 15.0787 123.697 15.8785C122.986 16.7227 122.63 17.8335 122.63 19.2997ZM144.135 14.9899H139.292V26.0977H136.004V14.9899H133.694V12.324H136.004V10.4134C136.004 8.99164 136.493 7.79199 137.426 6.85894C138.359 5.92588 139.559 5.48157 141.025 5.48157C141.425 5.48157 141.78 5.526 142.091 5.526C142.402 5.526 142.669 5.61486 142.891 5.70372V8.50289C142.802 8.45846 142.58 8.3696 142.313 8.28074C142.047 8.19187 141.736 8.14744 141.38 8.14744C140.714 8.14744 140.181 8.3696 139.825 8.76948C139.47 9.16936 139.292 9.83583 139.292 10.6356V12.2796H144.135V9.16936L147.379 8.19187V12.2796H150.667V14.9454H147.379V21.388C147.379 22.2322 147.556 22.8098 147.823 23.1652C148.134 23.5207 148.623 23.6984 149.289 23.6984C149.467 23.6984 149.689 23.654 149.956 23.5651C150.222 23.4762 150.444 23.3874 150.622 23.2541V25.92C150.4 26.0532 150.089 26.1421 149.6 26.231C149.111 26.3198 148.667 26.3643 148.178 26.3643C146.801 26.3643 145.779 26.0088 145.113 25.2979C144.446 24.587 144.091 23.4762 144.091 22.01L144.135 14.9899Z" fill="#737373"/>
<path d="M15.8621 0.505249H0.666626V15.7007H15.8621V0.505249Z" fill="#F25022"/>
<path d="M32.6572 0.505249H17.4617V15.7007H32.6572V0.505249Z" fill="#7FBA00"/>
<path d="M15.8621 17.3003H0.666626V32.4958H15.8621V17.3003Z" fill="#00A4EF"/>
<path d="M32.6572 17.3003H17.4617V32.4958H32.6572V17.3003Z" fill="#FFB900"/>
</g>
<defs>
<clipPath id="clip0">
<rect width="150" height="31.9905" fill="white" transform="translate(0.666626 0.505249)"/>
</clipPath>
</defs>
</svg>
